<?xml version="1.0" encoding="UTF-8" standalone="no"?>
<!-- Created with Inkscape (http://www.inkscape.org/) -->

<svg
   width="2048pt"
   height="2048pt"
   viewBox="0 0 722.48887 722.48888"
   version="1.1"
   id="svg1"
   inkscape:version="1.4.3 (0d15f75042, 2025-12-25)"
   sodipodi:docname="lixun-logo-transparent-dark.svg"
   xmlns:inkscape="http://www.inkscape.org/namespaces/inkscape"
   xmlns:sodipodi="http://sodipodi.sourceforge.net/DTD/sodipodi-0.dtd"
   xmlns="http://www.w3.org/2000/svg"
   xmlns:svg="http://www.w3.org/2000/svg">
  <sodipodi:namedview
     id="namedview1"
     pagecolor="#ffffff"
     bordercolor="#000000"
     borderopacity="0.25"
     inkscape:showpageshadow="2"
     inkscape:pageopacity="0.0"
     inkscape:pagecheckerboard="0"
     inkscape:deskcolor="#d1d1d1"
     inkscape:document-units="pt"
     inkscape:clip-to-page="true"
     showgrid="true"
     inkscape:zoom="0.2727601"
     inkscape:cx="1591.1418"
     inkscape:cy="1147.5285"
     inkscape:window-width="1800"
     inkscape:window-height="1054"
     inkscape:window-x="0"
     inkscape:window-y="0"
     inkscape:window-maximized="1"
     inkscape:current-layer="g13">
    <sodipodi:guide
       position="0,722.48885"
       orientation="0,2730.6667"
       id="guide5"
       inkscape:locked="false" />
    <sodipodi:guide
       position="722.48885,722.48885"
       orientation="2730.6667,0"
       id="guide6"
       inkscape:locked="false" />
    <sodipodi:guide
       position="722.48885,0"
       orientation="0,-2730.6667"
       id="guide7"
       inkscape:locked="false" />
    <sodipodi:guide
       position="0,0"
       orientation="-2730.6667,0"
       id="guide8"
       inkscape:locked="false" />
  </sodipodi:namedview>
  <defs
     id="defs1" />
  <g
     inkscape:label="Layer 1"
     inkscape:groupmode="layer"
     id="layer1">
    <g
       id="g13"
       transform="matrix(1.2353432,0,0,1.2217008,-437.60943,-576.7179)">
      <path
         fill="#ce422b"
         d="m 598.894,515.789 95.244,-0.161 -0.09,67.752 c 20.849,6.485 31.329,11.326 50.342,21.993 15.248,-15.377 30.329,-30.92 45.237,-46.626 l 68.249,68.635 c -13.981,12.82 -30.967,31.251 -44.763,45.13 7.383,14.269 11.32,30.86 15.107,46.317 22.17,0.149 44.34,0.182 66.51,0.102 l -0.056,98.668 c -20.928,-0.421 -42.762,-0.168 -63.764,-0.231 -4.482,16.137 -9.743,31.886 -17.555,46.751 C 801.077,851.58 788.692,839.145 776.201,826.818 837.892,683.783 670.719,559.159 555.997,654.173 c -30.864,25.548 -50.138,62.449 -53.473,102.375 -3.717,42.495 10.246,78.369 37.31,110.401 13.604,14.866 30.303,26.567 48.919,34.279 34.342,13.947 75.8,11.947 109.738,-2.344 13.049,13.355 26.177,26.634 39.382,39.835 -12.186,8.403 -29.498,14.466 -43.908,17.714 l 0.026,63.367 c -31.681,0.13 -63.363,0.09 -95.043,-0.12 l -0.022,-66.03 c -20.334,-7.265 -27.457,-9.369 -47.047,-19.356 -14.721,15.577 -29.653,30.953 -44.792,46.124 -20.882,-22.635 -46.443,-47.371 -68.439,-69.581 14.65,-14.786 29.219,-29.652 43.707,-44.598 -7.706,-14.408 -15.616,-32.845 -19.155,-48.769 l -64.599,0.066 0.104,-98.552 64.435,-0.121 c 3.765,-17.034 10.881,-32.332 18.407,-47.926 -13.523,-14.25 -28.605,-28.835 -42.579,-42.776 4.796,-4.306 9.175,-9.343 13.706,-13.951 18.135,-18.449 35.646,-37.827 54.167,-55.874 14.6,13.255 32.165,31.805 46.429,46.023 17.555,-10.684 26.481,-14.444 45.648,-21.143 z"
         id="path2" />
      <path
         id="path7"
         clip-path="none"
         d="M 648.7175 651.14048 C 645.94272 651.08525 643.22589 651.16768 640.59589 651.39893 C 575.02989 656.94093 528.15715 716.36706 534.12015 781.00106 C 536.54815 809.50106 550.39397 835.80981 572.51197 853.94781 C 595.93497 873.55481 626.27486 882.889 656.66886 879.841 C 674.39486 878.014 689.61195 872.11689 705.03795 863.59489 C 724.92695 884.35689 744.94798 904.99197 765.09898 925.49997 C 775.09098 935.92497 791.12295 957.04487 806.27595 958.24387 C 824.71895 959.70387 840.71089 934.45307 828.36389 919.38907 C 819.85189 909.00407 807.35682 898.26796 797.38882 888.77196 L 736.77812 830.62597 C 771.57312 776.16497 761.32118 705.63807 705.64618 668.75707 C 690.40718 658.6622 668.14103 651.52714 648.7175 651.14048 z M 647.90974 688.23058 C 687.12643 689.45599 719.79801 720.25817 722.51395 760.25098 C 725.41095 802.90898 693.12312 839.81517 650.45812 842.61217 C 607.93212 845.40117 571.17398 813.24189 568.28698 770.72289 C 565.39998 728.20389 597.47399 691.37081 639.98599 688.38581 C 642.65167 688.19856 645.29529 688.14888 647.90974 688.23058 z "
         style="fill:#333333" />
    </g>
  </g>
</svg>
